<?xml version="1.0" encoding="UTF-8" standalone="no"?>
<!DOCTYPE svg PUBLIC "-//W3C//DTD SVG 1.1//EN" "http://www.w3.org/Graphics/SVG/1.1/DTD/svg11.dtd">
<svg width="100%" height="100%" viewBox="0 0 1425 1332" version="1.1" xmlns="http://www.w3.org/2000/svg" xmlns:xlink="http://www.w3.org/1999/xlink" xml:space="preserve" xmlns:serif="http://www.serif.com/" style="fill-rule:evenodd;clip-rule:evenodd;stroke-linecap:round;stroke-linejoin:round;stroke-miterlimit:1.5;">
    <g transform="matrix(1,0,0,1,-527.717,-908.927)">
        <g id="Logo">
            <g transform="matrix(0.803263,0,0,0.959364,220.122,89.5069)">
                <path d="M1951.13,1614.91L1951.13,1860.16C1951.13,2049.18 1767.85,2202.65 1542.09,2202.65L996.693,2202.65C770.935,2202.65 587.648,2049.18 587.648,1860.16L587.648,1614.91C587.648,1299.87 893.126,1044.1 1269.39,1044.1C1645.65,1044.1 1951.13,1299.87 1951.13,1614.91Z" style="fill:none;stroke:rgb(40,177,180);stroke-width:86.47px;"/>
            </g>
            <g transform="matrix(0.981836,0,0,1.10851,129.432,-223.011)">
                <path d="M1537.36,1659.19L1537.36,1896.84C1537.36,1984.28 1457.21,2055.27 1358.49,2055.27L903.613,2055.27C804.891,2055.27 724.742,1984.28 724.742,1896.84L724.742,1659.19C724.742,1586.33 791.533,1527.17 873.801,1527.17L1388.31,1527.17C1470.57,1527.17 1537.36,1586.33 1537.36,1659.19Z" style="fill:rgb(117,215,211);stroke:rgb(40,177,180);stroke-width:73.06px;"/>
            </g>
            <g transform="matrix(0.96562,0,0,1,124.713,-22)">
                <ellipse cx="972.759" cy="1685.66" rx="49.573" ry="38.749" style="fill:rgb(65,52,111);stroke:rgb(65,52,111);stroke-width:77.83px;"/>
            </g>
            <g transform="matrix(0.96562,0,0,1,479.872,-22)">
                <ellipse cx="972.759" cy="1685.66" rx="49.573" ry="38.749" style="fill:rgb(65,52,111);stroke:rgb(65,52,111);stroke-width:77.83px;"/>
            </g>
            <g transform="matrix(7.03393e-17,-1.18963,0.968503,6.14151e-17,-447.598,3101.71)">
                <path d="M1037.18,1610.21C1019.4,1632.54 1004.97,1684.86 1004.97,1744.14C1004.97,1803.42 1019.4,1855.75 1037.18,1878.07C1001.62,1878.07 972.759,1818.06 972.759,1744.14C972.759,1670.23 1001.62,1610.21 1037.18,1610.21Z" style="fill:rgb(65,52,111);stroke:rgb(65,52,111);stroke-width:18.19px;"/>
            </g>
            <g transform="matrix(0.941053,-0.562661,0.301586,0.540961,-66.1477,913.324)">
                <rect x="741.8" y="998.54" width="59.957" height="235.874" style="fill:rgb(40,177,180);"/>
            </g>
            <g transform="matrix(-0.941053,-0.562661,-0.301586,0.540961,2546.46,913.324)">
                <rect x="741.8" y="998.54" width="59.957" height="235.874" style="fill:rgb(40,177,180);"/>
            </g>
            <g transform="matrix(0.96562,0,0,1,257.709,26.3242)">
                <circle cx="707.692" cy="955.116" r="72.513" style="fill:rgb(40,177,180);"/>
            </g>
            <g transform="matrix(0.96562,0,0,1,855.882,26.3242)">
                <circle cx="707.692" cy="955.116" r="72.513" style="fill:rgb(40,177,180);"/>
            </g>
            <g transform="matrix(0.96562,0,0,1,183.047,21.579)">
                <path d="M527.237,1587.56L527.237,1818.1L429.289,1818.1C411.27,1818.1 396.64,1803.98 396.64,1786.58L396.64,1619.09C396.64,1601.68 411.27,1587.56 429.289,1587.56L527.237,1587.56Z" style="fill:rgb(117,215,211);stroke:rgb(40,177,180);stroke-width:72px;"/>
            </g>
            <g transform="matrix(-0.96562,0,0,1,2296.5,21.579)">
                <path d="M527.237,1587.56L527.237,1818.1L429.289,1818.1C411.27,1818.1 396.64,1803.98 396.64,1786.58L396.64,1619.09C396.64,1601.68 411.27,1587.56 429.289,1587.56L527.237,1587.56Z" style="fill:rgb(117,215,211);stroke:rgb(40,177,180);stroke-width:72px;"/>
            </g>
        </g>
    </g>
</svg>
